<svg xmlns="http://www.w3.org/2000/svg" xmlns:xlink="http://www.w3.org/1999/xlink" width="100%" height="100%" version="1.1" viewBox="0 0 32 32" xml:space="preserve" style="fill-rule:evenodd;clip-rule:evenodd;stroke-linejoin:round;stroke-miterlimit:2"><g><path d="M32,85.078C13.589,80.213 0,63.431 0,43.5C0,19.768 19.268,0.5 43,0.5C66.732,0.5 86,19.768 86,43.5C86,63.548 72.251,80.409 53.676,85.162L32,96L32,85.078ZM38,11C23.65,11 12,22.65 12,37C12,51.35 23.65,63 38,63C52.35,63 64,51.35 64,37C64,22.65 52.35,11 38,11Z" style="fill:url(#_Linear1)" transform="matrix(0.319372,0,0,0.319372,2.26702,0.590314)"/></g><defs><linearGradient id="_Linear1" x1="0" x2="1" y1="0" y2="0" gradientTransform="matrix(76,-8,8,76,3,48)" gradientUnits="userSpaceOnUse"><stop offset="0" style="stop-color:#f3a000;stop-opacity:1"/><stop offset="1" style="stop-color:#f66e00;stop-opacity:1"/></linearGradient></defs></svg>